<mxfile host="app.diagrams.net" modified="2023-08-16T02:39:41.565Z" agent="Mozilla/5.0 (Macintosh; Intel Mac OS X 10_15_7) AppleWebKit/537.36 (KHTML, like Gecko) Chrome/112.0.0.0 Safari/537.36" etag="WuZgD6C_j0MHqz4Pp_J0" version="21.6.6" type="github">
  <diagram name="Page-1" id="1AczGnW73k5XlJmuj2Ov">
    <mxGraphModel dx="1351" dy="764" grid="1" gridSize="10" guides="1" tooltips="1" connect="1" arrows="1" fold="1" page="1" pageScale="1" pageWidth="850" pageHeight="1100" math="0" shadow="0">
      <root>
        <mxCell id="0" />
        <mxCell id="1" parent="0" />
        <mxCell id="67bZfnRdbJqTuJRju34Y-30" value="" style="rounded=0;whiteSpace=wrap;html=1;" parent="1" vertex="1">
          <mxGeometry x="70" y="398" width="580" height="770" as="geometry" />
        </mxCell>
        <mxCell id="rczmNI_zOA8aAPlAq43D-22" style="edgeStyle=orthogonalEdgeStyle;rounded=0;orthogonalLoop=1;jettySize=auto;html=1;entryX=1;entryY=0.5;entryDx=0;entryDy=0;" edge="1" parent="1" source="rczmNI_zOA8aAPlAq43D-3" target="67bZfnRdbJqTuJRju34Y-40">
          <mxGeometry relative="1" as="geometry" />
        </mxCell>
        <mxCell id="rczmNI_zOA8aAPlAq43D-28" value="deploy" style="edgeLabel;html=1;align=center;verticalAlign=middle;resizable=0;points=[];" vertex="1" connectable="0" parent="rczmNI_zOA8aAPlAq43D-22">
          <mxGeometry x="-0.1957" y="-1" relative="1" as="geometry">
            <mxPoint as="offset" />
          </mxGeometry>
        </mxCell>
        <mxCell id="rczmNI_zOA8aAPlAq43D-43" style="edgeStyle=orthogonalEdgeStyle;rounded=0;orthogonalLoop=1;jettySize=auto;html=1;entryX=0;entryY=0.5;entryDx=0;entryDy=0;" edge="1" parent="1" source="rczmNI_zOA8aAPlAq43D-3" target="rczmNI_zOA8aAPlAq43D-35">
          <mxGeometry relative="1" as="geometry" />
        </mxCell>
        <mxCell id="rczmNI_zOA8aAPlAq43D-44" value="Build webapp" style="edgeLabel;html=1;align=center;verticalAlign=middle;resizable=0;points=[];" vertex="1" connectable="0" parent="rczmNI_zOA8aAPlAq43D-43">
          <mxGeometry x="-0.1684" y="-2" relative="1" as="geometry">
            <mxPoint as="offset" />
          </mxGeometry>
        </mxCell>
        <mxCell id="rczmNI_zOA8aAPlAq43D-3" value="EC2 instance contents" style="points=[[0,0],[0.25,0],[0.5,0],[0.75,0],[1,0],[1,0.25],[1,0.5],[1,0.75],[1,1],[0.75,1],[0.5,1],[0.25,1],[0,1],[0,0.75],[0,0.5],[0,0.25]];outlineConnect=0;gradientColor=none;html=1;whiteSpace=wrap;fontSize=12;fontStyle=0;container=1;pointerEvents=0;collapsible=0;recursiveResize=0;shape=mxgraph.aws4.group;grIcon=mxgraph.aws4.group_ec2_instance_contents;strokeColor=#D86613;fillColor=default;verticalAlign=top;align=left;spacingLeft=30;fontColor=#D86613;dashed=0;" vertex="1" parent="1">
          <mxGeometry x="766" y="681" width="216.75" height="205" as="geometry" />
        </mxCell>
        <mxCell id="pq6amg75M7yGyTjaMe_x-3" value="" style="shape=image;verticalLabelPosition=bottom;labelBackgroundColor=default;verticalAlign=top;aspect=fixed;imageAspect=0;image=https://cdn.icon-icons.com/icons2/2699/PNG/512/jenkins_logo_icon_167854.png;" parent="rczmNI_zOA8aAPlAq43D-3" vertex="1">
          <mxGeometry x="47" y="62.5" width="137" height="68.5" as="geometry" />
        </mxCell>
        <mxCell id="rczmNI_zOA8aAPlAq43D-8" value="&lt;font style=&quot;font-size: 14px;&quot;&gt;EIP&lt;/font&gt;" style="ellipse;whiteSpace=wrap;html=1;aspect=fixed;fillColor=#dae8fc;strokeColor=#6c8ebf;" vertex="1" parent="rczmNI_zOA8aAPlAq43D-3">
          <mxGeometry x="85.86999999999999" y="180" width="45" height="45" as="geometry" />
        </mxCell>
        <mxCell id="i5DkIB-vPAqk3ScHdDsa-2" value="&lt;br&gt;&lt;br&gt;&lt;br&gt;&lt;br&gt;&lt;br&gt;&lt;br&gt;&lt;br&gt;&lt;br&gt;&lt;br&gt;&lt;br&gt;&lt;br&gt;&lt;br&gt;&lt;br&gt;" style="rounded=0;whiteSpace=wrap;html=1;" parent="1" vertex="1">
          <mxGeometry x="67.69" y="1386" width="583.38" height="442" as="geometry" />
        </mxCell>
        <mxCell id="i5DkIB-vPAqk3ScHdDsa-49" value="" style="rounded=0;whiteSpace=wrap;html=1;dashed=1;fillColor=#ffe6cc;strokeColor=#d79b00;" parent="1" vertex="1">
          <mxGeometry x="110" y="1458" width="523.87" height="260" as="geometry" />
        </mxCell>
        <mxCell id="67bZfnRdbJqTuJRju34Y-54" value="" style="shape=ext;double=1;rounded=1;whiteSpace=wrap;html=1;" parent="1" vertex="1">
          <mxGeometry x="199.19" y="878" width="300" height="150" as="geometry" />
        </mxCell>
        <mxCell id="67bZfnRdbJqTuJRju34Y-40" value="" style="shape=ext;double=1;rounded=1;whiteSpace=wrap;html=1;" parent="1" vertex="1">
          <mxGeometry x="199.19" y="708" width="300" height="150" as="geometry" />
        </mxCell>
        <mxCell id="67bZfnRdbJqTuJRju34Y-34" value="" style="shape=ext;double=1;rounded=1;whiteSpace=wrap;html=1;" parent="1" vertex="1">
          <mxGeometry x="200" y="418" width="300" height="280" as="geometry" />
        </mxCell>
        <mxCell id="67bZfnRdbJqTuJRju34Y-14" value="" style="shape=ext;double=1;rounded=1;whiteSpace=wrap;html=1;" parent="1" vertex="1">
          <mxGeometry x="1100" y="908" width="260" height="130" as="geometry" />
        </mxCell>
        <mxCell id="67bZfnRdbJqTuJRju34Y-2" value="" style="image;sketch=0;aspect=fixed;html=1;points=[];align=center;fontSize=12;image=img/lib/mscae/Docker.svg;" parent="1" vertex="1">
          <mxGeometry x="1110" y="933" width="63.55" height="52.11" as="geometry" />
        </mxCell>
        <mxCell id="67bZfnRdbJqTuJRju34Y-11" value="x86_64" style="text;html=1;strokeColor=none;fillColor=none;align=center;verticalAlign=middle;whiteSpace=wrap;rounded=0;" parent="1" vertex="1">
          <mxGeometry x="1220" y="953.3" width="60" height="30" as="geometry" />
        </mxCell>
        <mxCell id="67bZfnRdbJqTuJRju34Y-12" value="ARM 64" style="text;html=1;strokeColor=none;fillColor=none;align=center;verticalAlign=middle;whiteSpace=wrap;rounded=0;" parent="1" vertex="1">
          <mxGeometry x="1220" y="978" width="60" height="30" as="geometry" />
        </mxCell>
        <mxCell id="67bZfnRdbJqTuJRju34Y-13" value="&lt;b&gt;dockerhub images&lt;/b&gt;" style="text;html=1;strokeColor=none;fillColor=none;align=center;verticalAlign=middle;whiteSpace=wrap;rounded=0;" parent="1" vertex="1">
          <mxGeometry x="1200" y="921.64" width="120" height="30" as="geometry" />
        </mxCell>
        <UserObject label="https://hub.docker.com/repository/docker&#xa;/veronaz/project_5_verona" link="link to dockerhub repo" id="67bZfnRdbJqTuJRju34Y-16">
          <mxCell style="text;whiteSpace=wrap;" parent="1" vertex="1">
            <mxGeometry x="1110" y="998" width="250" height="40" as="geometry" />
          </mxCell>
        </UserObject>
        <mxCell id="67bZfnRdbJqTuJRju34Y-20" value="" style="sketch=0;points=[[0,0,0],[0.25,0,0],[0.5,0,0],[0.75,0,0],[1,0,0],[0,1,0],[0.25,1,0],[0.5,1,0],[0.75,1,0],[1,1,0],[0,0.25,0],[0,0.5,0],[0,0.75,0],[1,0.25,0],[1,0.5,0],[1,0.75,0]];outlineConnect=0;fontColor=#232F3E;gradientColor=#F78E04;gradientDirection=north;fillColor=#D05C17;strokeColor=#ffffff;dashed=0;verticalLabelPosition=bottom;verticalAlign=top;align=center;html=1;fontSize=12;fontStyle=0;aspect=fixed;shape=mxgraph.aws4.resourceIcon;resIcon=mxgraph.aws4.eks_cloud;movable=1;resizable=1;rotatable=1;deletable=1;editable=1;locked=0;connectable=1;" parent="1" vertex="1">
          <mxGeometry x="80" y="368" width="60" height="60" as="geometry" />
        </mxCell>
        <mxCell id="67bZfnRdbJqTuJRju34Y-22" value="" style="outlineConnect=0;dashed=0;verticalLabelPosition=bottom;verticalAlign=top;align=center;html=1;shape=mxgraph.aws3.emr_cluster;fillColor=#F58534;gradientColor=none;movable=1;resizable=1;rotatable=1;deletable=1;editable=1;locked=0;connectable=1;" parent="1" vertex="1">
          <mxGeometry x="322.25" y="428" width="55.5" height="63" as="geometry" />
        </mxCell>
        <mxCell id="67bZfnRdbJqTuJRju34Y-23" value="&lt;b&gt;AWS EKS&lt;/b&gt;" style="text;html=1;strokeColor=none;fillColor=none;align=center;verticalAlign=middle;whiteSpace=wrap;rounded=0;movable=1;resizable=1;rotatable=1;deletable=1;editable=1;locked=0;connectable=1;" parent="1" vertex="1">
          <mxGeometry x="50" y="428" width="120" height="30" as="geometry" />
        </mxCell>
        <mxCell id="67bZfnRdbJqTuJRju34Y-24" value="&lt;b&gt;EKS Cluster&lt;br&gt;control plane&lt;br&gt;&lt;/b&gt;" style="text;html=1;strokeColor=none;fillColor=none;align=center;verticalAlign=middle;whiteSpace=wrap;rounded=0;movable=1;resizable=1;rotatable=1;deletable=1;editable=1;locked=0;connectable=1;" parent="1" vertex="1">
          <mxGeometry x="290" y="498" width="120" height="30" as="geometry" />
        </mxCell>
        <mxCell id="67bZfnRdbJqTuJRju34Y-25" value="" style="image;aspect=fixed;html=1;points=[];align=center;fontSize=12;image=img/lib/azure2/compute/Virtual_Machines_Classic.svg;" parent="1" vertex="1">
          <mxGeometry x="251.63" y="584" width="69" height="64" as="geometry" />
        </mxCell>
        <mxCell id="67bZfnRdbJqTuJRju34Y-58" style="edgeStyle=orthogonalEdgeStyle;rounded=0;orthogonalLoop=1;jettySize=auto;html=1;entryX=0;entryY=0.5;entryDx=0;entryDy=0;" parent="1" source="67bZfnRdbJqTuJRju34Y-27" target="67bZfnRdbJqTuJRju34Y-54" edge="1">
          <mxGeometry relative="1" as="geometry">
            <Array as="points">
              <mxPoint x="170" y="778" />
              <mxPoint x="170" y="953" />
            </Array>
          </mxGeometry>
        </mxCell>
        <mxCell id="67bZfnRdbJqTuJRju34Y-27" value="" style="shape=image;html=1;verticalAlign=top;verticalLabelPosition=bottom;labelBackgroundColor=#ffffff;imageAspect=0;aspect=fixed;image=https://cdn1.iconfinder.com/data/icons/hawcons/32/698678-icon-70-document-code-128.png" parent="1" vertex="1">
          <mxGeometry x="226.13" y="738" width="80" height="80" as="geometry" />
        </mxCell>
        <mxCell id="67bZfnRdbJqTuJRju34Y-45" style="edgeStyle=orthogonalEdgeStyle;rounded=0;orthogonalLoop=1;jettySize=auto;html=1;" parent="1" source="67bZfnRdbJqTuJRju34Y-28" target="67bZfnRdbJqTuJRju34Y-43" edge="1">
          <mxGeometry relative="1" as="geometry" />
        </mxCell>
        <mxCell id="i5DkIB-vPAqk3ScHdDsa-51" style="edgeStyle=orthogonalEdgeStyle;rounded=0;orthogonalLoop=1;jettySize=auto;html=1;entryX=0.5;entryY=0;entryDx=0;entryDy=0;exitX=0;exitY=0.5;exitDx=0;exitDy=0;" parent="1" source="67bZfnRdbJqTuJRju34Y-28" target="i5DkIB-vPAqk3ScHdDsa-23" edge="1">
          <mxGeometry relative="1" as="geometry" />
        </mxCell>
        <mxCell id="67bZfnRdbJqTuJRju34Y-28" value="" style="shape=image;html=1;verticalAlign=top;verticalLabelPosition=bottom;labelBackgroundColor=#ffffff;imageAspect=0;aspect=fixed;image=https://cdn2.iconfinder.com/data/icons/whcompare-isometric-web-hosting-servers/50/ssl-certificate-128.png" parent="1" vertex="1">
          <mxGeometry x="295" y="1188" width="90" height="90" as="geometry" />
        </mxCell>
        <mxCell id="67bZfnRdbJqTuJRju34Y-31" value="" style="image;aspect=fixed;html=1;points=[];align=center;fontSize=12;image=img/lib/azure2/compute/Virtual_Machines_Classic.svg;" parent="1" vertex="1">
          <mxGeometry x="379.38" y="584" width="69" height="64" as="geometry" />
        </mxCell>
        <mxCell id="67bZfnRdbJqTuJRju34Y-32" value="&lt;b&gt;Node 1&lt;br&gt;&lt;/b&gt;" style="text;html=1;strokeColor=none;fillColor=none;align=center;verticalAlign=middle;whiteSpace=wrap;rounded=0;movable=1;resizable=1;rotatable=1;deletable=1;editable=1;locked=0;connectable=1;" parent="1" vertex="1">
          <mxGeometry x="226.13" y="648" width="120" height="30" as="geometry" />
        </mxCell>
        <mxCell id="67bZfnRdbJqTuJRju34Y-33" value="&lt;b&gt;Node 2&lt;br&gt;&lt;/b&gt;" style="text;html=1;strokeColor=none;fillColor=none;align=center;verticalAlign=middle;whiteSpace=wrap;rounded=0;movable=1;resizable=1;rotatable=1;deletable=1;editable=1;locked=0;connectable=1;" parent="1" vertex="1">
          <mxGeometry x="353.55" y="648" width="120" height="30" as="geometry" />
        </mxCell>
        <mxCell id="67bZfnRdbJqTuJRju34Y-35" value="&lt;b&gt;EKS Cluster node group&lt;br&gt;&lt;/b&gt;" style="text;html=1;strokeColor=none;fillColor=none;align=center;verticalAlign=middle;whiteSpace=wrap;rounded=0;movable=1;resizable=1;rotatable=1;deletable=1;editable=1;locked=0;connectable=1;" parent="1" vertex="1">
          <mxGeometry x="290" y="548" width="120" height="30" as="geometry" />
        </mxCell>
        <mxCell id="67bZfnRdbJqTuJRju34Y-36" value="&lt;b&gt;Kubernetes deployment YAML file&lt;br&gt;&lt;/b&gt;" style="text;html=1;strokeColor=none;fillColor=none;align=center;verticalAlign=middle;whiteSpace=wrap;rounded=0;movable=1;resizable=1;rotatable=1;deletable=1;editable=1;locked=0;connectable=1;" parent="1" vertex="1">
          <mxGeometry x="200" y="818" width="133.87" height="30" as="geometry" />
        </mxCell>
        <UserObject label="http://a9f74230eb1f7414b8669b0e3ae1e1d7-467484774.us-east-1.elb.amazonaws.com/" link="http://a9f74230eb1f7414b8669b0e3ae1e1d7-467484774.us-east-1.elb.amazonaws.com/" id="67bZfnRdbJqTuJRju34Y-37">
          <mxCell style="text;whiteSpace=wrap;" parent="1" vertex="1">
            <mxGeometry x="150" y="1308" width="500" height="40" as="geometry" />
          </mxCell>
        </UserObject>
        <mxCell id="67bZfnRdbJqTuJRju34Y-39" value="&lt;b&gt;web page&lt;br&gt;&lt;/b&gt;" style="text;html=1;strokeColor=none;fillColor=none;align=center;verticalAlign=middle;whiteSpace=wrap;rounded=0;movable=1;resizable=1;rotatable=1;deletable=1;editable=1;locked=0;connectable=1;" parent="1" vertex="1">
          <mxGeometry x="278.24" y="1278" width="120" height="30" as="geometry" />
        </mxCell>
        <mxCell id="67bZfnRdbJqTuJRju34Y-41" value="" style="shape=image;html=1;verticalAlign=top;verticalLabelPosition=bottom;labelBackgroundColor=#ffffff;imageAspect=0;aspect=fixed;image=https://cdn1.iconfinder.com/data/icons/hawcons/32/698678-icon-70-document-code-128.png" parent="1" vertex="1">
          <mxGeometry x="379.38" y="738" width="80" height="80" as="geometry" />
        </mxCell>
        <mxCell id="67bZfnRdbJqTuJRju34Y-56" style="edgeStyle=orthogonalEdgeStyle;rounded=0;orthogonalLoop=1;jettySize=auto;html=1;" parent="1" source="67bZfnRdbJqTuJRju34Y-42" target="67bZfnRdbJqTuJRju34Y-43" edge="1">
          <mxGeometry relative="1" as="geometry">
            <Array as="points">
              <mxPoint x="570" y="833" />
              <mxPoint x="570" y="1093" />
            </Array>
          </mxGeometry>
        </mxCell>
        <mxCell id="67bZfnRdbJqTuJRju34Y-42" value="&lt;b&gt;Kubernetes Service YAML file&lt;br&gt;&lt;/b&gt;" style="text;html=1;strokeColor=none;fillColor=none;align=center;verticalAlign=middle;whiteSpace=wrap;rounded=0;movable=1;resizable=1;rotatable=1;deletable=1;editable=1;locked=0;connectable=1;" parent="1" vertex="1">
          <mxGeometry x="359.38" y="818" width="120" height="30" as="geometry" />
        </mxCell>
        <mxCell id="67bZfnRdbJqTuJRju34Y-59" style="edgeStyle=orthogonalEdgeStyle;rounded=0;orthogonalLoop=1;jettySize=auto;html=1;" parent="1" source="67bZfnRdbJqTuJRju34Y-43" target="67bZfnRdbJqTuJRju34Y-52" edge="1">
          <mxGeometry relative="1" as="geometry" />
        </mxCell>
        <mxCell id="67bZfnRdbJqTuJRju34Y-60" style="edgeStyle=orthogonalEdgeStyle;rounded=0;orthogonalLoop=1;jettySize=auto;html=1;" parent="1" source="67bZfnRdbJqTuJRju34Y-43" target="67bZfnRdbJqTuJRju34Y-53" edge="1">
          <mxGeometry relative="1" as="geometry" />
        </mxCell>
        <mxCell id="67bZfnRdbJqTuJRju34Y-43" value="Classic Load Balancer" style="sketch=0;outlineConnect=0;fontColor=#232F3E;gradientColor=none;strokeColor=#ffffff;fillColor=#232F3E;dashed=0;verticalLabelPosition=middle;verticalAlign=bottom;align=center;html=1;whiteSpace=wrap;fontSize=10;fontStyle=1;spacing=3;shape=mxgraph.aws4.productIcon;prIcon=mxgraph.aws4.classic_load_balancer;" parent="1" vertex="1">
          <mxGeometry x="299.37999999999994" y="1038" width="80" height="110" as="geometry" />
        </mxCell>
        <mxCell id="67bZfnRdbJqTuJRju34Y-46" value="" style="sketch=0;html=1;dashed=0;whitespace=wrap;fillColor=#2875E2;strokeColor=#ffffff;points=[[0.005,0.63,0],[0.1,0.2,0],[0.9,0.2,0],[0.5,0,0],[0.995,0.63,0],[0.72,0.99,0],[0.5,1,0],[0.28,0.99,0]];verticalLabelPosition=bottom;align=center;verticalAlign=top;shape=mxgraph.kubernetes.icon;prIcon=pod" parent="1" vertex="1">
          <mxGeometry x="241.12" y="918" width="50" height="48" as="geometry" />
        </mxCell>
        <mxCell id="67bZfnRdbJqTuJRju34Y-48" value="&lt;b&gt;Deployment&lt;br&gt;&lt;/b&gt;" style="text;html=1;strokeColor=none;fillColor=none;align=center;verticalAlign=middle;whiteSpace=wrap;rounded=0;movable=1;resizable=1;rotatable=1;deletable=1;editable=1;locked=0;connectable=1;" parent="1" vertex="1">
          <mxGeometry x="280" y="887" width="120" height="30" as="geometry" />
        </mxCell>
        <mxCell id="67bZfnRdbJqTuJRju34Y-49" value="" style="sketch=0;html=1;dashed=0;whitespace=wrap;fillColor=#2875E2;strokeColor=#ffffff;points=[[0.005,0.63,0],[0.1,0.2,0],[0.9,0.2,0],[0.5,0,0],[0.995,0.63,0],[0.72,0.99,0],[0.5,1,0],[0.28,0.99,0]];verticalLabelPosition=bottom;align=center;verticalAlign=top;shape=mxgraph.kubernetes.icon;prIcon=pod" parent="1" vertex="1">
          <mxGeometry x="388.87" y="918" width="50" height="48" as="geometry" />
        </mxCell>
        <mxCell id="67bZfnRdbJqTuJRju34Y-52" value="&lt;b&gt;Pod 1&lt;br&gt;&lt;/b&gt;" style="text;html=1;strokeColor=none;fillColor=none;align=center;verticalAlign=middle;whiteSpace=wrap;rounded=0;movable=1;resizable=1;rotatable=1;deletable=1;editable=1;locked=0;connectable=1;" parent="1" vertex="1">
          <mxGeometry x="199.19" y="968" width="133.87" height="30" as="geometry" />
        </mxCell>
        <mxCell id="67bZfnRdbJqTuJRju34Y-53" value="&lt;b&gt;Pod 2&lt;br&gt;&lt;/b&gt;" style="text;html=1;strokeColor=none;fillColor=none;align=center;verticalAlign=middle;whiteSpace=wrap;rounded=0;movable=1;resizable=1;rotatable=1;deletable=1;editable=1;locked=0;connectable=1;" parent="1" vertex="1">
          <mxGeometry x="346.94" y="968" width="133.87" height="30" as="geometry" />
        </mxCell>
        <mxCell id="67bZfnRdbJqTuJRju34Y-62" value="&lt;b&gt;Kubectl CLI&lt;br&gt;&lt;/b&gt;" style="text;html=1;strokeColor=none;fillColor=none;align=center;verticalAlign=middle;whiteSpace=wrap;rounded=0;movable=1;resizable=1;rotatable=1;deletable=1;editable=1;locked=0;connectable=1;" parent="1" vertex="1">
          <mxGeometry x="280" y="718" width="120" height="30" as="geometry" />
        </mxCell>
        <mxCell id="i5DkIB-vPAqk3ScHdDsa-28" style="edgeStyle=orthogonalEdgeStyle;rounded=0;orthogonalLoop=1;jettySize=auto;html=1;entryX=0.5;entryY=1;entryDx=0;entryDy=0;" parent="1" source="i5DkIB-vPAqk3ScHdDsa-1" target="i5DkIB-vPAqk3ScHdDsa-15" edge="1">
          <mxGeometry relative="1" as="geometry" />
        </mxCell>
        <mxCell id="i5DkIB-vPAqk3ScHdDsa-44" value="Volume mount" style="edgeLabel;html=1;align=center;verticalAlign=middle;resizable=0;points=[];" parent="i5DkIB-vPAqk3ScHdDsa-28" vertex="1" connectable="0">
          <mxGeometry x="-0.1511" y="1" relative="1" as="geometry">
            <mxPoint as="offset" />
          </mxGeometry>
        </mxCell>
        <mxCell id="i5DkIB-vPAqk3ScHdDsa-1" value="log file" style="shape=note;whiteSpace=wrap;html=1;backgroundOutline=1;darkOpacity=0.05;" parent="1" vertex="1">
          <mxGeometry x="150.25" y="1738" width="63.87" height="80" as="geometry" />
        </mxCell>
        <mxCell id="i5DkIB-vPAqk3ScHdDsa-3" value="" style="ellipse;whiteSpace=wrap;html=1;aspect=fixed;" parent="1" vertex="1">
          <mxGeometry x="140" y="1468" width="80" height="80" as="geometry" />
        </mxCell>
        <mxCell id="i5DkIB-vPAqk3ScHdDsa-10" value="" style="image;aspect=fixed;html=1;points=[];align=center;fontSize=12;image=img/lib/azure2/compute/Virtual_Machines_Classic.svg;" parent="1" vertex="1">
          <mxGeometry x="326.94" y="1358" width="69" height="64" as="geometry" />
        </mxCell>
        <mxCell id="i5DkIB-vPAqk3ScHdDsa-26" value="" style="edgeStyle=orthogonalEdgeStyle;rounded=0;orthogonalLoop=1;jettySize=auto;html=1;" parent="1" source="i5DkIB-vPAqk3ScHdDsa-11" target="i5DkIB-vPAqk3ScHdDsa-1" edge="1">
          <mxGeometry relative="1" as="geometry" />
        </mxCell>
        <mxCell id="i5DkIB-vPAqk3ScHdDsa-27" value="Volume mount" style="edgeLabel;html=1;align=center;verticalAlign=middle;resizable=0;points=[];" parent="i5DkIB-vPAqk3ScHdDsa-26" vertex="1" connectable="0">
          <mxGeometry x="-0.1041" y="-1" relative="1" as="geometry">
            <mxPoint as="offset" />
          </mxGeometry>
        </mxCell>
        <mxCell id="i5DkIB-vPAqk3ScHdDsa-11" value="" style="shape=image;verticalLabelPosition=bottom;labelBackgroundColor=default;verticalAlign=top;aspect=fixed;imageAspect=0;image=https://1000logos.net/wp-content/uploads/2020/08/Nginx-Logo-500x313.png;" parent="1" vertex="1">
          <mxGeometry x="145.88" y="1486.6399999999999" width="68.24" height="42.72" as="geometry" />
        </mxCell>
        <mxCell id="i5DkIB-vPAqk3ScHdDsa-15" value="" style="ellipse;whiteSpace=wrap;html=1;aspect=fixed;" parent="1" vertex="1">
          <mxGeometry x="314.94" y="1497" width="80" height="80" as="geometry" />
        </mxCell>
        <mxCell id="i5DkIB-vPAqk3ScHdDsa-16" value="" style="shape=image;verticalLabelPosition=bottom;labelBackgroundColor=default;verticalAlign=top;aspect=fixed;imageAspect=0;image=data:image/jpeg,/9j/4AAQSkZJRgABAQAAAQABAAD/2wCEAAkGBwgHBgkIBwgKCgkLDRYPDQwMDRsUFRAWIB0iIiAdHx8kKDQsJCYxJx8fLT0tMTU3Ojo6Iys/RD84QzQ5OjcBCgoKDQwNGg8PGjclHyU3Nzc3Nzc3Nzc3Nzc3Nzc3Nzc3Nzc3Nzc3Nzc3Nzc3Nzc3Nzc3Nzc3Nzc3Nzc3Nzc3N//AABEIAHcAkAMBIgACEQEDEQH/xAAcAAEAAQUBAQAAAAAAAAAAAAAAAwEEBQYHAgj/xAA/EAABAwMABgYFCgUFAAAAAAABAAIDBAURBhIhMUFREyJhcYGRBzJCUsEVJDNDU2JyobHRFCOCsvEWVGOS8P/EABoBAAIDAQEAAAAAAAAAAAAAAAAEAgMFAQb/xAAjEQADAAEFAAICAwAAAAAAAAAAAQIDBBESITFBURNxFGGR/9oADAMBAAIRAxEAPwDpF5uck0z4YXlkTNnVPrc1htYtdlpIPMKZ+eO/ioHLViVM7Ixburrdl7SXyspSAX9Mz3ZNvkVsdtvFLXdRp6Ob7N2/w5rSnKIkg5BwRuI4KF6eL86Zbj1Fx/aOmBVWo2jSV8RbDcSXM3CUDaO/mtqilZKxr43BzHbQ4HIKQyY6h7M0ceWci3kkREUCwIiIAIiIAIiIAIiIAIiIA0q4xGCtnj4B5I7jtVi5bFpNTHWjqWjeNR3w+K11y08NcoTMfNHC2iJyhcpnKFyuRUROV9abzU2uTqHXgJ60ROzvHJWLlE5dcqlszs05e6OmW25U9yg6Wmfn3mHY5p5EK7XKqaqno5xPSymOQcRxHIjiFuth0np7g5tPVasFW7Y0Z6sn4Tz7P1Wdm0zjtdo0sOpV9V6bCioCqpYaCIiACIiACIiACIiAIKunZU074X7nDHd2rR6mF9PM+KUYew4K39YLSS39JF/FxN60Y64A3t5+CY0+TjWz8YrqsXKeS9RqjlC5TOULloozCJyicpXKJymjhG5Qysa9pa4ZBUzlE5AGWtGmdZansp7oHVdJubN9Y3v979e1bza77bLqwOoayKR3GPOHjvadq5VKxsjC14yCsNUQmCTB4bWuVGTSRfa6GMequOn2jv8AlUe9rG6z3Bo5k4XBI7lXxDVir6tg5NncB+qsbhcZn5bLPLM//keXY81T/Ba9oZWs5dKTtV300sFqaenr2SyD6uD+YSfDYPErR7v6WKp5cyzUEcQzslqiXkj8LSMeZXOHOc86zjkqisnS4172Wflpmfq9NdJat5dJd6hg92ECMD/qFWLSDSykp2Vra+6NpierNKHOjce9wLSteIyF0G7afUNdoZ8jx2+VtU+FkLtYN6JmMdYHOeGzZvUrlLZKQVb+s2LQDTuS91Atl2Eba4gmKVg1WygbSMcHY29uFv6+ZKKqmoayGrpXak8Lw9juRC7xonpfbtI4GiOQRVobmSmecOB4lvvDt88JTUYeL5SuiyL36ZsaoRkKqJUtNH0joPkuoEzB8zmOAfs3cj2cvLksS5dHrKaKsp5KedgfFI3VcFy+509TYq99HL/MhG2Mn2m8CFpabJzXF+mTq8X4nyXjJHKJyR1MU3quw73TsKOTQumn4RuUTlK5ROQBG5W1VCJo9XHW9kq5Ksq6pEDQ1uOkdu7ApgYOsnMJMTc9JuP3Vjjv7Vd1se3pBtJ3q1wuPcbxbKejyi9YUUk8bPayeQUSzc9rN6PaK3bSE61BABADg1Ep1Yxzwd58FnPR3oRJftS63iN0ds3wwbjU9p+5/d3b+zRRshiZFExrI2ANa1owGgbgAlM2q4vjPpdGJvtnObf6J6RrQbjcp5X8WwMaxv55WVp/RpYqaeKeGavZLE8PY9s4BBHcFuiJN5sj+S5RK+AiIqiYwsDphaBdLU4xszUwAvi5nm3x/ZZ5UKlNOKVIhcK5cv5OHO3r02qmj2B5I5HaslpRRigvlXCxuGF+uzudt+JWHK3paqUzzjTinP0XQuDh60YPccIa9nFjvNWZUM0jY2lzvJd4omqZdz3KKNudV2twGxYeSo6R5e/Jcd6ikeZHZd/heEbDEz9kkj9dhaG7xxWDdWS8A1v5rMLCVbdSqlH3sqNF+JLw8PkfJ6ziezK3L0aaGnSS4Grroz8lUzhr5+vf7g7OfgOOzXtG7HVaRXiC20Y60hzJJwiYPWcf/bSQF9JWa10tntlPb6CPo6eBuq0cTzJ5knJJSWpzcFxXo3jjfsvGMbGwMY0Na0YDQMABekRZoyEREAEREAFQ7wqqhQBzL0h4/wBQ9X/bs1u/LvhhauVl9J60V98qp2O1o9bUZjiBs+BPisJPM2IbdruS3sC445R5zM+WamvspNI2Jus4+HNYuaV0rsu3cByXqaR0ji5yiKtLYnYoiIuFoWIrGOkrjHE0vke5rGNaMlzjsAHaSss5zWglxAAGSTwC6L6L9CnQSjSG7wltQ/bSQPG2Np9sjg4jcOA79lGfKsc7svwS6o2H0c6JN0Ys4NQGuuNSA6peB6vJgPIfmclbcqBVWNVOnuzRS2WwREUToREQARFaV1wpLfGZK2pihbw13YJ7hxXUm/DjaS3ZdZWr6Z6QMoKV1HTP+dStw4j6pp49/JYi/aegtdDZ2EE7OneP7R8StDqZ5Z3ufK9znOOXEnOTzKe0+le/KzO1OtW3DH/pWepx1Y9/Mqwec5J2lSOUblpGdCSInLwV7cvBXRiSiqASQACSTgAbystYtHLpfXj+Apz0WcGeTqxjx4+GV1PRbQq32LVqJPnVd9s8bGfhHDv3pfNqYx/sYx4av9Gv6EaCFjo7lfYhrDDoaV3A8HP/AG810gIFVZGTJWSt6NCIULZBERQJhERABERAGDutlrK0O/h73WU4PsYaWjywfzWoVmgl1L3PjqKeocTtc9xa4+YP6oiux6i46Qtl0mPI96MRV6KXqm+kpBjmJWfusZNa66P16cj+tv7oiew6i69EMuliH0RNtdbL9HAT/W391fU2h99qvoqNoHN0zAP1VERm1Fx4Sxaea9MzRejK4y4NdW08A4iNpkPwW02nQCx28h8sTqyUe1UHLR3N3eeVREleoy302Pxgxz4ja2tDGhrQA0DAA4KqIqC8IiIAIiIAIiIAIiIA/9k=;" parent="1" vertex="1">
          <mxGeometry x="334.61" y="1517" width="50.05" height="41.36" as="geometry" />
        </mxCell>
        <mxCell id="i5DkIB-vPAqk3ScHdDsa-17" value="" style="shape=image;html=1;verticalAlign=top;verticalLabelPosition=bottom;labelBackgroundColor=#ffffff;imageAspect=0;aspect=fixed;image=https://cdn1.iconfinder.com/data/icons/hawcons/32/698678-icon-70-document-code-128.png" parent="1" vertex="1">
          <mxGeometry x="292.13" y="1477" width="54" height="54" as="geometry" />
        </mxCell>
        <mxCell id="i5DkIB-vPAqk3ScHdDsa-46" style="edgeStyle=orthogonalEdgeStyle;rounded=0;orthogonalLoop=1;jettySize=auto;html=1;entryX=1;entryY=0.5;entryDx=0;entryDy=0;" parent="1" source="i5DkIB-vPAqk3ScHdDsa-19" target="i5DkIB-vPAqk3ScHdDsa-15" edge="1">
          <mxGeometry relative="1" as="geometry" />
        </mxCell>
        <mxCell id="i5DkIB-vPAqk3ScHdDsa-47" value="scrape metrics" style="edgeLabel;html=1;align=center;verticalAlign=middle;resizable=0;points=[];" parent="i5DkIB-vPAqk3ScHdDsa-46" vertex="1" connectable="0">
          <mxGeometry x="0.2193" y="1" relative="1" as="geometry">
            <mxPoint as="offset" />
          </mxGeometry>
        </mxCell>
        <mxCell id="i5DkIB-vPAqk3ScHdDsa-19" value="" style="ellipse;whiteSpace=wrap;html=1;aspect=fixed;" parent="1" vertex="1">
          <mxGeometry x="513.87" y="1498" width="80" height="80" as="geometry" />
        </mxCell>
        <mxCell id="i5DkIB-vPAqk3ScHdDsa-48" value="query metrics" style="edgeStyle=orthogonalEdgeStyle;rounded=0;orthogonalLoop=1;jettySize=auto;html=1;exitX=0.5;exitY=0;exitDx=0;exitDy=0;entryX=0.5;entryY=1;entryDx=0;entryDy=0;" parent="1" source="i5DkIB-vPAqk3ScHdDsa-21" edge="1">
          <mxGeometry relative="1" as="geometry">
            <mxPoint x="555" y="1579" as="targetPoint" />
          </mxGeometry>
        </mxCell>
        <mxCell id="i5DkIB-vPAqk3ScHdDsa-21" value="" style="ellipse;whiteSpace=wrap;html=1;aspect=fixed;" parent="1" vertex="1">
          <mxGeometry x="515" y="1609" width="80" height="80" as="geometry" />
        </mxCell>
        <mxCell id="i5DkIB-vPAqk3ScHdDsa-23" value="SVCs" style="rounded=0;whiteSpace=wrap;html=1;fillColor=#dae8fc;strokeColor=#6c8ebf;" parent="1" vertex="1">
          <mxGeometry x="221.93" y="1434" width="90" height="40" as="geometry" />
        </mxCell>
        <mxCell id="i5DkIB-vPAqk3ScHdDsa-25" value="&lt;b&gt;Each worker nodes&lt;br&gt;&lt;/b&gt;" style="text;html=1;strokeColor=none;fillColor=none;align=center;verticalAlign=middle;whiteSpace=wrap;rounded=0;movable=1;resizable=1;rotatable=1;deletable=1;editable=1;locked=0;connectable=1;" parent="1" vertex="1">
          <mxGeometry x="301.44" y="1414" width="120" height="30" as="geometry" />
        </mxCell>
        <mxCell id="i5DkIB-vPAqk3ScHdDsa-38" value="&lt;b&gt;Fluentd&lt;br&gt;&lt;/b&gt;" style="text;html=1;strokeColor=none;fillColor=none;align=center;verticalAlign=middle;whiteSpace=wrap;rounded=0;movable=1;resizable=1;rotatable=1;deletable=1;editable=1;locked=0;connectable=1;" parent="1" vertex="1">
          <mxGeometry x="326.94" y="1570" width="120" height="30" as="geometry" />
        </mxCell>
        <mxCell id="i5DkIB-vPAqk3ScHdDsa-39" value="&lt;b&gt;&lt;br&gt;&lt;/b&gt;" style="text;html=1;strokeColor=none;fillColor=none;align=center;verticalAlign=middle;whiteSpace=wrap;rounded=0;movable=1;resizable=1;rotatable=1;deletable=1;editable=1;locked=0;connectable=1;" parent="1" vertex="1">
          <mxGeometry x="495" y="1519" width="120" height="30" as="geometry" />
        </mxCell>
        <mxCell id="i5DkIB-vPAqk3ScHdDsa-40" value="" style="sketch=0;points=[[0,0,0],[0.25,0,0],[0.5,0,0],[0.75,0,0],[1,0,0],[0,1,0],[0.25,1,0],[0.5,1,0],[0.75,1,0],[1,1,0],[0,0.25,0],[0,0.5,0],[0,0.75,0],[1,0.25,0],[1,0.5,0],[1,0.75,0]];points=[[0,0,0],[0.25,0,0],[0.5,0,0],[0.75,0,0],[1,0,0],[0,1,0],[0.25,1,0],[0.5,1,0],[0.75,1,0],[1,1,0],[0,0.25,0],[0,0.5,0],[0,0.75,0],[1,0.25,0],[1,0.5,0],[1,0.75,0]];outlineConnect=0;fontColor=#232F3E;gradientColor=#F34482;gradientDirection=north;fillColor=#BC1356;strokeColor=#ffffff;dashed=0;verticalLabelPosition=bottom;verticalAlign=top;align=center;html=1;fontSize=12;fontStyle=0;aspect=fixed;shape=mxgraph.aws4.resourceIcon;resIcon=mxgraph.aws4.managed_service_for_prometheus;" parent="1" vertex="1">
          <mxGeometry x="529.37" y="1513.5" width="49" height="49" as="geometry" />
        </mxCell>
        <mxCell id="i5DkIB-vPAqk3ScHdDsa-41" value="" style="image;aspect=fixed;html=1;points=[];align=center;fontSize=12;image=img/lib/azure2/other/Grafana.svg;" parent="1" vertex="1">
          <mxGeometry x="530.8" y="1628.9" width="49.2" height="38.2" as="geometry" />
        </mxCell>
        <mxCell id="i5DkIB-vPAqk3ScHdDsa-42" value="&lt;b&gt;Grafana&lt;br&gt;&lt;/b&gt;" style="text;html=1;strokeColor=none;fillColor=none;align=center;verticalAlign=middle;whiteSpace=wrap;rounded=0;movable=1;resizable=1;rotatable=1;deletable=1;editable=1;locked=0;connectable=1;" parent="1" vertex="1">
          <mxGeometry x="496.19" y="1659" width="120" height="30" as="geometry" />
        </mxCell>
        <mxCell id="i5DkIB-vPAqk3ScHdDsa-43" value="&lt;b&gt;Prometheus&lt;br&gt;&lt;/b&gt;" style="text;html=1;strokeColor=none;fillColor=none;align=center;verticalAlign=middle;whiteSpace=wrap;rounded=0;movable=1;resizable=1;rotatable=1;deletable=1;editable=1;locked=0;connectable=1;" parent="1" vertex="1">
          <mxGeometry x="495" y="1474" width="120" height="30" as="geometry" />
        </mxCell>
        <mxCell id="i5DkIB-vPAqk3ScHdDsa-50" value="&lt;b&gt;Pods&lt;br&gt;&lt;/b&gt;" style="text;html=1;strokeColor=none;fillColor=none;align=center;verticalAlign=middle;whiteSpace=wrap;rounded=0;movable=1;resizable=1;rotatable=1;deletable=1;editable=1;locked=0;connectable=1;" parent="1" vertex="1">
          <mxGeometry x="299.38" y="1444" width="120" height="30" as="geometry" />
        </mxCell>
        <mxCell id="i5DkIB-vPAqk3ScHdDsa-52" value="config-map" style="text;html=1;strokeColor=none;fillColor=none;align=center;verticalAlign=middle;whiteSpace=wrap;rounded=0;movable=1;resizable=1;rotatable=1;deletable=1;editable=1;locked=0;connectable=1;" parent="1" vertex="1">
          <mxGeometry x="257.75" y="1519" width="120" height="30" as="geometry" />
        </mxCell>
        <mxCell id="i5DkIB-vPAqk3ScHdDsa-53" value="Dashboard" style="text;html=1;strokeColor=none;fillColor=none;align=center;verticalAlign=middle;whiteSpace=wrap;rounded=0;movable=1;resizable=1;rotatable=1;deletable=1;editable=1;locked=0;connectable=1;" parent="1" vertex="1">
          <mxGeometry x="496.19" y="1683" width="120" height="30" as="geometry" />
        </mxCell>
        <mxCell id="rczmNI_zOA8aAPlAq43D-11" style="edgeStyle=orthogonalEdgeStyle;rounded=0;orthogonalLoop=1;jettySize=auto;html=1;exitX=0.5;exitY=0;exitDx=0;exitDy=0;" edge="1" parent="1" source="pq6amg75M7yGyTjaMe_x-5">
          <mxGeometry relative="1" as="geometry">
            <mxPoint x="890" y="900" as="targetPoint" />
          </mxGeometry>
        </mxCell>
        <mxCell id="rczmNI_zOA8aAPlAq43D-12" value="&lt;span style=&quot;&quot;&gt;&lt;b&gt;&lt;font style=&quot;font-size: 13px;&quot;&gt;Webhook&lt;/font&gt;&lt;/b&gt;&lt;/span&gt;" style="edgeLabel;html=1;align=center;verticalAlign=middle;resizable=0;points=[];labelBackgroundColor=#D4E1F5;" vertex="1" connectable="0" parent="rczmNI_zOA8aAPlAq43D-11">
          <mxGeometry x="0.0861" y="1" relative="1" as="geometry">
            <mxPoint as="offset" />
          </mxGeometry>
        </mxCell>
        <mxCell id="pq6amg75M7yGyTjaMe_x-5" value="" style="shape=image;verticalLabelPosition=bottom;labelBackgroundColor=default;verticalAlign=top;aspect=fixed;imageAspect=0;image=https://cdn4.iconfinder.com/data/icons/iconsimple-logotypes/512/github-512.png;" parent="1" vertex="1">
          <mxGeometry x="866.75" y="1001" width="70.75" height="70.75" as="geometry" />
        </mxCell>
        <mxCell id="rczmNI_zOA8aAPlAq43D-7" style="edgeStyle=orthogonalEdgeStyle;rounded=0;orthogonalLoop=1;jettySize=auto;html=1;entryX=0;entryY=1;entryDx=0;entryDy=0;" edge="1" parent="1" source="rczmNI_zOA8aAPlAq43D-6" target="rczmNI_zOA8aAPlAq43D-8">
          <mxGeometry relative="1" as="geometry">
            <mxPoint x="806.75" y="891" as="targetPoint" />
          </mxGeometry>
        </mxCell>
        <mxCell id="rczmNI_zOA8aAPlAq43D-6" value="Jenkins webpage &lt;br&gt;from local machine" style="sketch=0;pointerEvents=1;shadow=0;dashed=0;html=1;strokeColor=none;fillColor=#505050;labelPosition=center;verticalLabelPosition=bottom;verticalAlign=top;outlineConnect=0;align=center;shape=mxgraph.office.devices.laptop;" vertex="1" parent="1">
          <mxGeometry x="690" y="947" width="58" height="34" as="geometry" />
        </mxCell>
        <mxCell id="rczmNI_zOA8aAPlAq43D-13" style="edgeStyle=orthogonalEdgeStyle;rounded=0;orthogonalLoop=1;jettySize=auto;html=1;" edge="1" parent="1" source="rczmNI_zOA8aAPlAq43D-10">
          <mxGeometry relative="1" as="geometry">
            <mxPoint x="340" y="320" as="sourcePoint" />
            <mxPoint x="295" y="397" as="targetPoint" />
            <Array as="points">
              <mxPoint x="295" y="397" />
            </Array>
          </mxGeometry>
        </mxCell>
        <mxCell id="rczmNI_zOA8aAPlAq43D-14" value="&lt;font style=&quot;font-size: 13px;&quot;&gt;eks.tf&lt;/font&gt;" style="edgeLabel;html=1;align=center;verticalAlign=middle;resizable=0;points=[];" vertex="1" connectable="0" parent="rczmNI_zOA8aAPlAq43D-13">
          <mxGeometry x="0.1848" relative="1" as="geometry">
            <mxPoint as="offset" />
          </mxGeometry>
        </mxCell>
        <mxCell id="rczmNI_zOA8aAPlAq43D-29" style="edgeStyle=orthogonalEdgeStyle;rounded=0;orthogonalLoop=1;jettySize=auto;html=1;" edge="1" parent="1" source="rczmNI_zOA8aAPlAq43D-10" target="rczmNI_zOA8aAPlAq43D-3">
          <mxGeometry relative="1" as="geometry">
            <mxPoint x="860" y="550" as="targetPoint" />
          </mxGeometry>
        </mxCell>
        <mxCell id="rczmNI_zOA8aAPlAq43D-30" value="&lt;font style=&quot;font-size: 13px;&quot;&gt;jenkins.tf&amp;nbsp;&lt;/font&gt;" style="edgeLabel;html=1;align=center;verticalAlign=middle;resizable=0;points=[];" vertex="1" connectable="0" parent="rczmNI_zOA8aAPlAq43D-29">
          <mxGeometry x="-0.3144" y="3" relative="1" as="geometry">
            <mxPoint as="offset" />
          </mxGeometry>
        </mxCell>
        <mxCell id="rczmNI_zOA8aAPlAq43D-10" value="Local machine" style="sketch=0;pointerEvents=1;shadow=0;dashed=0;html=1;strokeColor=none;fillColor=#505050;labelPosition=center;verticalLabelPosition=bottom;verticalAlign=top;outlineConnect=0;align=left;shape=mxgraph.office.devices.laptop;" vertex="1" parent="1">
          <mxGeometry x="194.51999999999998" y="180" width="200" height="130" as="geometry" />
        </mxCell>
        <mxCell id="pq6amg75M7yGyTjaMe_x-1" value="Terraform" style="shape=image;verticalLabelPosition=bottom;labelBackgroundColor=default;verticalAlign=top;aspect=fixed;imageAspect=0;image=https://encrypted-tbn0.gstatic.com/images?q=tbn:ANd9GcSgpP1YOGPOhkAAX1ud9L6ji_wpAGyQ07P2gKcdz28iQQ&amp;s;" parent="1" vertex="1">
          <mxGeometry x="267" y="210" width="50" height="50" as="geometry" />
        </mxCell>
        <mxCell id="rczmNI_zOA8aAPlAq43D-20" value="" style="edgeStyle=orthogonalEdgeStyle;rounded=0;orthogonalLoop=1;jettySize=auto;html=1;" edge="1" parent="1" source="rczmNI_zOA8aAPlAq43D-19" target="pq6amg75M7yGyTjaMe_x-5">
          <mxGeometry relative="1" as="geometry" />
        </mxCell>
        <mxCell id="rczmNI_zOA8aAPlAq43D-21" value="&lt;b&gt;Commit&lt;/b&gt;" style="edgeLabel;html=1;align=center;verticalAlign=middle;resizable=0;points=[];" vertex="1" connectable="0" parent="rczmNI_zOA8aAPlAq43D-20">
          <mxGeometry x="0.1339" y="-1" relative="1" as="geometry">
            <mxPoint as="offset" />
          </mxGeometry>
        </mxCell>
        <mxCell id="rczmNI_zOA8aAPlAq43D-19" value="Development environment" style="shape=image;html=1;verticalAlign=top;verticalLabelPosition=bottom;labelBackgroundColor=#ffffff;imageAspect=0;aspect=fixed;image=https://cdn4.iconfinder.com/data/icons/icocentre-free-icons/170/f-command_256-128.png" vertex="1" parent="1">
          <mxGeometry x="866.75" y="1116" width="72" height="72" as="geometry" />
        </mxCell>
        <mxCell id="rczmNI_zOA8aAPlAq43D-46" value="" style="edgeStyle=orthogonalEdgeStyle;rounded=0;orthogonalLoop=1;jettySize=auto;html=1;entryX=0.5;entryY=0;entryDx=0;entryDy=0;" edge="1" parent="1" source="rczmNI_zOA8aAPlAq43D-35" target="67bZfnRdbJqTuJRju34Y-14">
          <mxGeometry relative="1" as="geometry" />
        </mxCell>
        <mxCell id="rczmNI_zOA8aAPlAq43D-47" value="Dockerized" style="edgeLabel;html=1;align=center;verticalAlign=middle;resizable=0;points=[];" vertex="1" connectable="0" parent="rczmNI_zOA8aAPlAq43D-46">
          <mxGeometry x="-0.0252" y="1" relative="1" as="geometry">
            <mxPoint as="offset" />
          </mxGeometry>
        </mxCell>
        <mxCell id="rczmNI_zOA8aAPlAq43D-35" value="" style="shape=ext;double=1;rounded=1;whiteSpace=wrap;html=1;" vertex="1" parent="1">
          <mxGeometry x="1100" y="718.5" width="260" height="130" as="geometry" />
        </mxCell>
        <mxCell id="rczmNI_zOA8aAPlAq43D-36" value="" style="edgeStyle=orthogonalEdgeStyle;rounded=0;orthogonalLoop=1;jettySize=auto;html=1;" edge="1" parent="1" source="rczmNI_zOA8aAPlAq43D-38" target="rczmNI_zOA8aAPlAq43D-39">
          <mxGeometry relative="1" as="geometry" />
        </mxCell>
        <mxCell id="rczmNI_zOA8aAPlAq43D-37" value="host" style="edgeLabel;html=1;align=center;verticalAlign=middle;resizable=0;points=[];" vertex="1" connectable="0" parent="rczmNI_zOA8aAPlAq43D-36">
          <mxGeometry x="-0.1028" y="2" relative="1" as="geometry">
            <mxPoint as="offset" />
          </mxGeometry>
        </mxCell>
        <mxCell id="rczmNI_zOA8aAPlAq43D-38" value="" style="shape=image;verticalLabelPosition=bottom;labelBackgroundColor=default;verticalAlign=top;aspect=fixed;imageAspect=0;image=https://1000logos.net/wp-content/uploads/2020/08/Nginx-Logo-500x313.png;" vertex="1" parent="1">
          <mxGeometry x="1270" y="765.78" width="68.24" height="42.72" as="geometry" />
        </mxCell>
        <mxCell id="rczmNI_zOA8aAPlAq43D-39" value="" style="shape=image;verticalLabelPosition=bottom;labelBackgroundColor=default;verticalAlign=top;aspect=fixed;imageAspect=0;image=https://www.datocms-assets.com/45470/1631110818-logo-react-js.png;clipPath=inset(0.76% 22.67% 0% 22.33%);" vertex="1" parent="1">
          <mxGeometry x="1120" y="747.14" width="67.51918158567774" height="80" as="geometry" />
        </mxCell>
        <mxCell id="rczmNI_zOA8aAPlAq43D-40" value="&lt;b&gt;Webapp&lt;/b&gt;" style="text;html=1;strokeColor=none;fillColor=none;align=center;verticalAlign=middle;whiteSpace=wrap;rounded=0;" vertex="1" parent="1">
          <mxGeometry x="1180" y="722.75" width="120" height="30" as="geometry" />
        </mxCell>
      </root>
    </mxGraphModel>
  </diagram>
</mxfile>
